<svg id="svg" version="1.1" xmlns="http://www.w3.org/2000/svg" xmlns:xlink="http://www.w3.org/1999/xlink" width="400" height="168.43826655764514" viewBox="0, 0, 400,168.43826655764514"><g id="svgg"><path id="path0" d="M214.183 15.752 C 213.967 15.870,213.539 15.932,213.231 15.891 C 212.923 15.849,212.621 15.896,212.560 15.995 C 212.499 16.094,212.154 16.175,211.794 16.175 C 211.435 16.175,211.093 16.251,211.036 16.344 C 210.979 16.436,210.714 16.512,210.447 16.512 C 210.179 16.512,209.914 16.588,209.857 16.681 C 209.800 16.773,209.572 16.849,209.351 16.849 C 209.131 16.849,208.903 16.925,208.846 17.018 C 208.789 17.110,208.563 17.186,208.344 17.186 C 208.126 17.186,207.922 17.261,207.891 17.353 C 207.860 17.445,207.626 17.537,207.372 17.558 C 207.117 17.579,206.908 17.656,206.908 17.728 C 206.908 17.801,206.763 17.860,206.585 17.860 C 206.408 17.860,206.237 17.935,206.206 18.027 C 206.175 18.119,205.947 18.211,205.699 18.231 C 205.451 18.252,205.284 18.328,205.330 18.401 C 205.375 18.474,205.218 18.534,204.980 18.534 C 204.743 18.534,204.549 18.610,204.549 18.703 C 204.549 18.795,204.450 18.871,204.328 18.871 C 204.207 18.871,203.945 19.023,203.746 19.208 C 203.547 19.393,203.281 19.545,203.156 19.545 C 203.031 19.545,202.763 19.698,202.562 19.886 C 202.361 20.073,202.177 20.213,202.152 20.198 C 202.026 20.120,201.348 20.431,201.348 20.567 C 201.348 20.654,201.249 20.725,201.127 20.725 C 201.005 20.725,200.759 20.861,200.579 21.028 C 200.400 21.195,200.115 21.384,199.947 21.448 C 199.779 21.512,199.690 21.643,199.749 21.738 C 199.808 21.834,199.780 21.891,199.687 21.866 C 199.594 21.841,199.196 22.085,198.803 22.409 C 197.828 23.214,195.750 25.273,195.911 25.276 C 195.982 25.278,195.851 25.375,195.619 25.492 C 195.291 25.658,195.194 25.843,195.181 26.327 C 195.171 26.668,195.221 26.912,195.291 26.869 C 195.362 26.825,195.853 27.206,196.382 27.714 C 196.911 28.223,197.430 28.590,197.535 28.530 C 197.640 28.470,197.676 28.476,197.616 28.544 C 197.383 28.804,199.340 30.432,200.039 30.559 C 200.385 30.621,200.705 30.378,201.916 29.133 C 202.719 28.308,203.439 27.633,203.517 27.633 C 203.594 27.633,203.895 27.405,204.186 27.127 C 204.477 26.849,204.834 26.622,204.979 26.622 C 205.124 26.622,205.196 26.546,205.139 26.453 C 205.082 26.361,205.153 26.285,205.298 26.285 C 205.442 26.285,205.560 26.226,205.560 26.154 C 205.560 26.083,206.274 25.685,207.147 25.271 C 208.135 24.803,208.660 24.468,208.537 24.386 C 208.429 24.312,208.549 24.301,208.804 24.360 C 209.095 24.428,209.267 24.399,209.267 24.281 C 209.267 24.178,209.404 24.094,209.570 24.094 C 209.737 24.094,209.949 24.019,210.041 23.927 C 210.133 23.835,210.412 23.743,210.661 23.722 C 210.909 23.701,211.146 23.597,211.187 23.489 C 211.230 23.378,211.451 23.330,211.697 23.377 C 211.954 23.426,212.131 23.383,212.131 23.272 C 212.131 23.168,212.397 23.083,212.721 23.083 C 213.045 23.083,213.311 23.008,213.311 22.915 C 213.311 22.822,213.648 22.746,214.059 22.746 C 214.471 22.746,214.854 22.671,214.912 22.578 C 214.969 22.485,215.613 22.409,216.344 22.409 C 217.074 22.409,217.719 22.334,217.776 22.241 C 217.833 22.148,218.402 22.072,219.040 22.072 C 219.677 22.072,220.246 22.148,220.303 22.241 C 220.361 22.334,221.090 22.409,221.924 22.409 C 222.892 22.409,223.403 22.470,223.336 22.578 C 223.279 22.671,223.344 22.746,223.481 22.746 C 223.617 22.746,223.768 22.652,223.814 22.536 C 223.882 22.367,223.902 22.367,223.913 22.536 C 223.920 22.652,224.111 22.746,224.337 22.746 C 224.563 22.746,224.795 22.822,224.853 22.915 C 224.910 23.008,225.175 23.083,225.442 23.083 C 225.709 23.083,225.975 23.159,226.032 23.252 C 226.089 23.345,226.284 23.420,226.465 23.420 C 226.647 23.420,226.945 23.496,227.129 23.589 C 227.314 23.682,227.615 23.833,227.799 23.926 C 227.983 24.019,228.286 24.094,228.473 24.094 C 228.659 24.094,228.812 24.170,228.812 24.263 C 228.812 24.356,228.926 24.431,229.066 24.431 C 229.205 24.431,229.712 24.621,230.192 24.853 C 230.673 25.084,231.165 25.274,231.287 25.274 C 231.408 25.274,231.508 25.350,231.508 25.442 C 231.508 25.535,231.605 25.611,231.724 25.611 C 231.842 25.611,232.048 25.762,232.182 25.948 C 232.316 26.133,232.560 26.285,232.725 26.285 C 232.890 26.285,233.024 26.365,233.024 26.463 C 233.024 26.561,233.100 26.595,233.193 26.537 C 233.286 26.480,233.361 26.516,233.361 26.617 C 233.361 26.718,233.494 26.851,233.656 26.912 C 233.818 26.972,234.150 27.233,234.392 27.490 C 234.635 27.747,234.881 27.910,234.940 27.851 C 234.998 27.793,235.046 27.838,235.046 27.952 C 235.046 28.065,235.104 28.122,235.175 28.079 C 235.245 28.035,235.563 28.296,235.881 28.659 C 236.198 29.021,236.562 29.318,236.689 29.318 C 236.816 29.318,236.878 29.385,236.828 29.467 C 236.777 29.549,237.076 29.929,237.492 30.313 C 237.907 30.696,238.248 31.114,238.248 31.241 C 238.248 31.442,238.608 31.702,238.950 31.746 C 239.012 31.754,239.125 31.830,239.202 31.914 C 239.284 32.003,239.255 32.017,239.132 31.946 C 238.792 31.751,238.891 32.086,239.250 32.344 C 239.430 32.474,239.543 32.636,239.501 32.705 C 239.459 32.773,239.522 32.930,239.642 33.053 C 240.094 33.519,240.607 34.351,240.607 34.619 C 240.607 34.772,240.682 34.851,240.775 34.794 C 240.868 34.736,240.944 34.839,240.944 35.022 C 240.944 35.205,241.000 35.381,241.070 35.411 C 241.256 35.494,241.997 36.900,241.855 36.900 C 241.788 36.900,241.850 37.032,241.992 37.195 C 242.133 37.357,242.228 37.622,242.201 37.784 C 242.175 37.947,242.205 38.079,242.270 38.079 C 242.334 38.079,242.484 38.439,242.603 38.880 C 242.722 39.320,242.890 39.812,242.977 39.972 C 243.063 40.133,243.134 40.451,243.134 40.679 C 243.134 40.906,243.210 41.139,243.302 41.196 C 243.395 41.254,243.471 41.675,243.471 42.133 C 243.471 42.591,243.547 42.965,243.639 42.965 C 243.732 42.965,243.808 43.367,243.808 43.858 C 243.808 44.350,243.903 44.854,244.019 44.978 C 244.187 45.160,244.187 45.182,244.019 45.086 C 243.854 44.993,243.808 45.541,243.808 47.589 C 243.808 49.031,243.746 50.211,243.671 50.211 C 243.596 50.211,243.515 50.571,243.493 51.011 C 243.470 51.451,243.380 51.883,243.293 51.971 C 243.206 52.059,243.134 52.377,243.134 52.678 C 243.134 52.978,243.058 53.270,242.965 53.328 C 242.873 53.385,242.797 53.612,242.797 53.833 C 242.797 54.054,242.731 54.275,242.650 54.325 C 242.570 54.375,242.458 54.645,242.402 54.926 C 242.255 55.659,242.252 55.666,242.016 55.902 C 241.897 56.021,241.843 56.229,241.895 56.365 C 241.948 56.502,241.921 56.613,241.835 56.613 C 241.750 56.613,241.576 56.879,241.449 57.203 C 241.322 57.527,241.156 57.793,241.081 57.793 C 241.005 57.793,240.944 57.944,240.944 58.130 C 240.944 58.315,240.868 58.467,240.775 58.467 C 240.682 58.467,240.607 58.602,240.607 58.767 C 240.607 58.931,240.455 59.176,240.270 59.309 C 240.084 59.443,239.933 59.621,239.933 59.706 C 239.933 59.790,239.777 59.995,239.586 60.160 C 239.396 60.325,239.228 60.613,239.214 60.800 C 239.200 60.986,239.143 61.111,239.088 61.077 C 239.032 61.042,238.839 61.214,238.659 61.457 C 238.479 61.701,238.142 62.107,237.911 62.360 C 236.913 63.448,236.575 63.858,236.678 63.858 C 236.738 63.858,236.365 64.154,235.850 64.515 C 235.335 64.876,234.759 65.312,234.570 65.484 C 233.948 66.052,233.715 66.217,233.537 66.217 C 233.440 66.217,233.361 66.293,233.361 66.386 C 233.361 66.479,233.248 66.554,233.109 66.554 C 232.970 66.554,232.856 66.630,232.856 66.723 C 232.856 66.816,232.742 66.891,232.603 66.891 C 232.464 66.891,232.350 66.967,232.350 67.060 C 232.350 67.152,232.245 67.228,232.116 67.228 C 231.987 67.228,231.836 67.347,231.780 67.492 C 231.724 67.637,231.594 67.703,231.490 67.639 C 231.387 67.575,231.253 67.589,231.194 67.670 C 231.036 67.887,229.662 68.576,229.386 68.576 C 229.256 68.576,229.149 68.652,229.149 68.745 C 229.149 68.837,228.997 68.913,228.812 68.913 C 228.627 68.913,228.475 68.989,228.475 69.082 C 228.475 69.174,228.286 69.250,228.054 69.250 C 227.822 69.250,227.633 69.309,227.633 69.382 C 227.633 69.539,226.123 70.015,225.821 69.953 C 225.706 69.929,225.611 69.989,225.611 70.085 C 225.611 70.182,225.307 70.261,224.937 70.261 C 224.566 70.261,224.263 70.335,224.263 70.425 C 224.263 70.515,223.942 70.561,223.550 70.528 C 223.158 70.495,222.646 70.544,222.412 70.638 C 222.179 70.731,221.306 70.825,220.472 70.847 C 218.825 70.889,218.366 71.007,218.366 71.384 C 218.366 71.519,218.294 71.585,218.206 71.530 C 218.114 71.473,218.063 71.717,218.084 72.109 C 218.105 72.481,218.055 72.808,217.972 72.836 C 217.889 72.863,217.788 73.186,217.748 73.553 C 217.708 73.920,217.603 74.293,217.515 74.381 C 217.427 74.469,217.355 74.829,217.355 75.181 C 217.355 75.533,217.279 75.821,217.186 75.821 C 217.094 75.821,217.018 76.231,217.018 76.733 L 217.018 77.644 219.663 77.666 C 221.117 77.679,222.395 77.761,222.502 77.850 C 222.609 77.939,223.360 78.004,224.171 77.996 C 225.037 77.986,225.722 78.056,225.831 78.164 C 225.932 78.266,226.450 78.349,226.982 78.349 C 227.514 78.349,227.997 78.425,228.054 78.517 C 228.111 78.610,228.533 78.686,228.991 78.686 C 229.448 78.686,229.823 78.762,229.823 78.854 C 229.823 78.947,230.164 79.023,230.581 79.023 C 230.998 79.023,231.340 79.099,231.340 79.191 C 231.340 79.284,231.643 79.360,232.013 79.360 C 232.384 79.360,232.687 79.436,232.687 79.528 C 232.687 79.621,232.910 79.697,233.183 79.697 C 233.456 79.697,233.725 79.773,233.783 79.865 C 233.840 79.958,234.143 80.034,234.457 80.034 C 234.770 80.034,235.073 80.110,235.131 80.202 C 235.188 80.295,235.415 80.371,235.636 80.371 C 235.857 80.371,236.084 80.447,236.142 80.539 C 236.199 80.632,236.431 80.708,236.657 80.708 C 236.883 80.708,237.068 80.767,237.068 80.839 C 237.068 80.983,238.854 81.550,239.309 81.550 C 239.467 81.550,239.596 81.626,239.596 81.719 C 239.596 81.811,239.747 81.887,239.933 81.887 C 240.118 81.887,240.270 81.963,240.270 82.056 C 240.270 82.148,240.415 82.224,240.593 82.224 C 240.770 82.224,240.941 82.302,240.973 82.396 C 241.004 82.491,241.269 82.586,241.560 82.607 C 241.852 82.628,242.055 82.702,242.012 82.772 C 241.970 82.841,242.095 82.898,242.291 82.898 C 242.488 82.898,242.602 82.974,242.544 83.067 C 242.487 83.159,242.559 83.235,242.705 83.235 C 242.947 83.235,243.603 83.536,243.808 83.741 C 243.982 83.915,244.926 84.434,245.535 84.691 C 245.882 84.837,246.167 85.024,246.167 85.107 C 246.167 85.189,246.312 85.257,246.490 85.257 C 246.667 85.257,246.838 85.319,246.869 85.395 C 246.989 85.691,249.048 86.952,249.229 86.840 C 249.346 86.767,249.374 86.796,249.300 86.916 C 249.224 87.038,249.305 87.110,249.515 87.110 C 249.703 87.110,249.898 87.259,249.958 87.447 C 250.017 87.633,250.174 87.784,250.308 87.784 C 250.441 87.784,250.789 88.012,251.080 88.290 C 251.371 88.568,251.679 88.795,251.764 88.795 C 251.850 88.795,252.034 88.910,252.174 89.050 C 252.314 89.189,252.500 89.260,252.587 89.206 C 252.675 89.151,252.735 89.170,252.722 89.246 C 252.661 89.598,252.758 89.806,252.983 89.806 C 253.118 89.806,253.418 89.996,253.649 90.227 C 253.881 90.459,254.017 90.649,253.952 90.649 C 253.887 90.650,254.080 90.800,254.381 90.984 C 254.682 91.167,254.928 91.403,254.928 91.507 C 254.928 91.611,255.046 91.651,255.190 91.595 C 255.334 91.540,255.415 91.554,255.371 91.625 C 255.327 91.697,255.526 91.942,255.813 92.171 C 256.724 92.895,258.553 94.737,258.509 94.886 C 258.486 94.965,258.541 95.029,258.631 95.029 C 258.721 95.029,258.906 95.238,259.041 95.493 C 259.177 95.748,259.675 96.373,260.148 96.883 C 261.999 98.879,262.174 99.086,262.174 99.292 C 262.174 99.409,262.325 99.614,262.511 99.747 C 262.696 99.881,262.848 100.108,262.848 100.253 C 262.848 100.397,262.999 100.625,263.184 100.758 C 263.370 100.892,263.521 101.102,263.521 101.224 C 263.521 101.347,263.716 101.642,263.954 101.880 C 264.334 102.260,264.519 102.582,264.713 103.201 C 264.742 103.294,264.903 103.517,265.071 103.696 C 265.238 103.876,265.375 104.123,265.375 104.244 C 265.375 104.366,265.451 104.465,265.543 104.465 C 265.636 104.465,265.712 104.583,265.712 104.728 C 265.712 104.872,265.790 104.942,265.885 104.884 C 265.980 104.825,266.046 104.839,266.033 104.916 C 265.968 105.289,266.079 105.613,266.381 105.937 C 266.614 106.188,266.652 106.318,266.507 106.377 C 266.349 106.441,266.350 106.463,266.512 106.474 C 266.628 106.481,266.723 106.639,266.723 106.824 C 266.723 107.009,266.799 107.161,266.891 107.161 C 266.984 107.161,267.060 107.275,267.060 107.414 C 267.060 107.553,267.136 107.666,267.228 107.666 C 267.321 107.666,267.397 107.860,267.397 108.098 C 267.397 108.342,267.470 108.484,267.565 108.425 C 267.658 108.367,267.734 108.440,267.734 108.585 C 267.734 108.842,268.052 109.516,268.254 109.688 C 268.308 109.735,268.457 110.133,268.585 110.573 C 268.714 111.013,268.878 111.373,268.950 111.373 C 269.022 111.373,269.082 111.601,269.082 111.879 C 269.082 112.157,269.158 112.384,269.250 112.384 C 269.343 112.384,269.419 112.569,269.419 112.795 C 269.419 113.022,269.497 113.255,269.592 113.314 C 269.687 113.372,269.744 113.547,269.718 113.703 C 269.691 113.864,269.767 113.965,269.895 113.939 C 270.017 113.913,270.068 113.973,270.006 114.072 C 269.945 114.171,269.996 114.377,270.120 114.530 C 270.245 114.684,270.259 114.756,270.151 114.691 C 270.014 114.609,270.022 114.791,270.181 115.318 C 270.304 115.726,270.359 116.105,270.305 116.160 C 270.250 116.215,270.312 116.259,270.444 116.259 C 270.614 116.259,270.675 116.452,270.657 116.933 C 270.644 117.304,270.701 117.607,270.784 117.607 C 270.867 117.607,270.935 117.911,270.935 118.281 C 270.935 118.652,271.011 118.955,271.104 118.955 C 271.196 118.955,271.272 119.290,271.272 119.700 C 271.272 120.109,271.350 120.470,271.446 120.502 C 271.542 120.534,271.627 120.938,271.635 121.400 C 271.644 121.863,271.727 122.290,271.821 122.349 C 271.915 122.409,271.981 122.894,271.969 123.427 C 271.956 123.985,272.036 124.508,272.157 124.657 C 272.325 124.865,272.325 124.892,272.157 124.791 C 272.041 124.721,271.946 124.744,271.946 124.843 C 271.946 124.941,272.022 125.021,272.115 125.021 C 272.207 125.021,272.283 125.324,272.283 125.695 L 272.283 126.369 260.194 126.372 C 253.545 126.373,248.015 126.431,247.906 126.500 C 247.763 126.591,247.716 127.545,247.737 129.910 L 247.767 133.193 263.481 133.233 L 279.194 133.272 279.186 128.551 C 279.181 125.955,279.115 123.869,279.038 123.916 C 278.961 123.964,278.885 123.379,278.869 122.617 C 278.853 121.855,278.767 121.159,278.678 121.071 C 278.590 120.982,278.517 120.523,278.517 120.051 C 278.517 119.578,278.434 119.108,278.332 119.006 C 278.230 118.904,278.147 118.529,278.147 118.172 C 278.147 117.815,278.071 117.476,277.978 117.419 C 277.885 117.361,277.810 117.039,277.810 116.702 C 277.810 116.366,277.741 116.091,277.658 116.091 C 277.575 116.091,277.506 115.788,277.506 115.417 C 277.506 115.046,277.430 114.743,277.338 114.743 C 277.245 114.743,277.169 114.531,277.169 114.271 C 277.169 114.012,277.099 113.727,277.014 113.639 C 276.928 113.551,276.833 113.252,276.803 112.974 C 276.773 112.696,276.667 112.483,276.568 112.500 C 276.463 112.519,276.417 112.336,276.458 112.057 C 276.496 111.795,276.445 111.530,276.343 111.467 C 276.241 111.405,276.158 111.168,276.158 110.942 C 276.158 110.716,276.083 110.531,275.990 110.531 C 275.897 110.531,275.821 110.346,275.821 110.119 C 275.821 109.893,275.746 109.661,275.653 109.604 C 275.560 109.547,275.484 109.353,275.484 109.173 C 275.484 108.993,275.409 108.846,275.316 108.846 C 275.223 108.846,275.147 108.653,275.147 108.418 C 275.147 108.183,274.996 107.693,274.811 107.331 C 274.626 106.969,274.352 106.308,274.202 105.863 C 274.051 105.419,273.785 104.854,273.611 104.608 C 273.437 104.362,273.294 104.039,273.294 103.891 C 273.294 103.744,273.218 103.623,273.126 103.623 C 273.033 103.623,272.957 103.471,272.957 103.286 C 272.957 103.100,272.881 102.949,272.789 102.949 C 272.696 102.949,272.620 102.797,272.620 102.612 C 272.620 102.426,272.553 102.275,272.471 102.275 C 272.389 102.275,272.280 102.142,272.229 101.980 C 272.104 101.586,271.557 100.688,271.398 100.618 C 271.329 100.587,271.272 100.412,271.272 100.229 C 271.272 100.046,271.215 99.930,271.146 99.972 C 270.972 100.078,270.694 99.733,270.625 99.326 C 270.593 99.141,270.498 98.964,270.414 98.933 C 270.330 98.902,270.261 98.786,270.261 98.675 C 270.261 98.564,270.110 98.364,269.924 98.231 C 269.739 98.097,269.587 97.849,269.587 97.678 C 269.587 97.508,269.512 97.415,269.421 97.471 C 269.325 97.530,269.297 97.463,269.354 97.313 C 269.410 97.169,269.376 97.051,269.280 97.051 C 269.183 97.051,269.056 96.897,268.996 96.709 C 268.936 96.521,268.703 96.183,268.479 95.958 C 268.254 95.734,268.070 95.490,268.070 95.416 C 268.070 95.343,267.842 95.040,267.565 94.744 C 267.287 94.448,267.060 94.144,267.060 94.070 C 267.059 93.835,266.273 93.008,266.158 93.123 C 266.098 93.183,266.049 93.101,266.049 92.941 C 266.049 92.782,265.973 92.698,265.880 92.755 C 265.788 92.812,265.712 92.741,265.712 92.596 C 265.712 92.452,265.636 92.334,265.543 92.334 C 265.451 92.334,265.375 92.256,265.375 92.161 C 265.375 91.976,264.857 91.412,262.548 89.082 C 260.486 87.001,260.420 86.942,260.160 86.942 C 260.032 86.942,259.972 86.897,260.027 86.842 C 260.127 86.742,258.398 84.920,258.204 84.920 C 258.149 84.920,257.794 84.617,257.416 84.246 C 257.038 83.875,256.643 83.572,256.539 83.572 C 256.436 83.572,256.244 83.424,256.114 83.244 C 255.984 83.064,255.815 82.955,255.739 83.002 C 255.663 83.049,255.554 82.969,255.499 82.824 C 255.443 82.680,255.250 82.561,255.069 82.561 C 254.888 82.561,254.782 82.493,254.833 82.410 C 254.917 82.275,254.546 82.023,254.206 81.986 C 254.133 81.978,254.002 81.858,253.914 81.719 C 253.826 81.580,253.753 81.522,253.752 81.591 C 253.749 81.708,253.324 81.401,252.805 80.908 C 252.677 80.786,252.495 80.734,252.401 80.792 C 252.307 80.850,252.185 80.779,252.129 80.634 C 252.073 80.489,251.865 80.370,251.667 80.368 C 251.372 80.366,251.352 80.336,251.559 80.202 C 251.763 80.070,251.739 80.038,251.432 80.036 C 251.224 80.035,251.053 79.958,251.053 79.865 C 251.053 79.773,250.939 79.697,250.800 79.697 C 250.661 79.697,250.548 79.621,250.548 79.528 C 250.548 79.436,250.434 79.360,250.295 79.360 C 250.156 79.360,250.042 79.284,250.042 79.191 C 250.042 79.099,249.890 79.023,249.705 79.023 C 249.520 79.023,249.368 78.954,249.368 78.871 C 249.368 78.787,249.160 78.632,248.905 78.527 C 248.650 78.421,248.176 78.194,247.852 78.022 C 247.527 77.850,247.205 77.744,247.136 77.786 C 247.066 77.828,247.009 77.764,247.008 77.643 C 247.007 77.521,246.818 77.334,246.587 77.227 C 246.269 77.080,246.194 77.080,246.278 77.227 C 246.339 77.334,246.188 77.238,245.941 77.014 C 245.695 76.789,245.493 76.658,245.493 76.723 C 245.493 76.788,245.275 76.728,245.009 76.591 C 244.742 76.453,244.477 76.388,244.419 76.446 C 244.361 76.504,244.313 76.450,244.313 76.327 C 244.313 76.203,244.264 76.152,244.203 76.213 C 244.142 76.274,243.991 76.240,243.868 76.138 C 243.745 76.036,243.525 75.998,243.380 76.053 C 243.228 76.112,243.160 76.084,243.219 75.988 C 243.276 75.896,243.204 75.821,243.060 75.821 C 242.915 75.821,242.797 75.746,242.797 75.653 C 242.797 75.560,242.612 75.484,242.386 75.484 C 242.159 75.484,241.928 75.409,241.870 75.316 C 241.813 75.223,241.619 75.147,241.439 75.147 C 241.259 75.147,241.112 75.072,241.112 74.979 C 241.112 74.886,240.922 74.810,240.691 74.810 C 240.459 74.810,240.270 74.735,240.270 74.642 C 240.270 74.549,240.042 74.473,239.764 74.473 C 239.486 74.473,239.259 74.407,239.259 74.326 C 239.259 74.245,239.053 74.179,238.802 74.179 C 238.551 74.179,238.318 74.093,238.283 73.989 C 238.248 73.885,237.998 73.799,237.728 73.799 C 237.458 73.799,237.237 73.740,237.237 73.668 C 237.237 73.595,237.040 73.520,236.800 73.500 C 236.204 73.451,236.053 73.332,236.178 73.008 C 236.254 72.810,236.221 72.772,236.060 72.871 C 235.915 72.961,235.877 72.944,235.952 72.822 C 236.016 72.719,236.179 72.677,236.315 72.730 C 236.451 72.782,236.563 72.741,236.563 72.638 C 236.563 72.535,236.662 72.452,236.784 72.452 C 236.905 72.452,237.167 72.300,237.366 72.115 C 237.565 71.929,237.815 71.778,237.920 71.778 C 238.026 71.778,238.325 71.550,238.585 71.272 C 238.844 70.994,239.183 70.767,239.336 70.767 C 239.490 70.767,239.569 70.691,239.511 70.598 C 239.454 70.505,239.488 70.430,239.587 70.430 C 239.862 70.430,240.867 69.403,240.803 69.188 C 240.772 69.083,240.805 69.055,240.875 69.125 C 241.042 69.293,241.786 68.591,241.786 68.266 C 241.786 68.128,241.832 68.061,241.888 68.117 C 242.015 68.243,242.689 67.585,242.842 67.186 C 242.904 67.024,243.052 66.891,243.171 66.890 C 243.388 66.888,244.110 66.083,244.122 65.829 C 244.125 65.755,244.341 65.488,244.600 65.237 C 245.146 64.708,245.830 63.772,245.830 63.554 C 245.830 63.472,245.981 63.268,246.167 63.100 C 246.352 62.933,246.504 62.726,246.504 62.641 C 246.504 62.556,246.618 62.372,246.758 62.232 C 246.898 62.092,246.969 61.908,246.917 61.823 C 246.864 61.738,246.906 61.668,247.009 61.668 C 247.113 61.668,247.151 61.592,247.094 61.500 C 247.036 61.407,247.070 61.331,247.168 61.331 C 247.266 61.331,247.346 61.179,247.346 60.994 C 247.346 60.809,247.422 60.657,247.515 60.657 C 247.607 60.657,247.683 60.505,247.683 60.320 C 247.683 60.135,247.759 59.983,247.852 59.983 C 247.944 59.983,248.020 59.789,248.020 59.552 C 248.020 59.307,248.093 59.166,248.189 59.225 C 248.284 59.284,248.357 59.142,248.357 58.898 C 248.357 58.661,248.433 58.467,248.526 58.467 C 248.618 58.467,248.694 58.315,248.694 58.130 C 248.694 57.944,248.778 57.793,248.881 57.793 C 248.983 57.793,249.026 57.686,248.977 57.556 C 248.927 57.426,248.992 57.180,249.122 57.009 C 249.251 56.838,249.360 56.489,249.363 56.234 C 249.366 55.979,249.444 55.771,249.537 55.771 C 249.629 55.771,249.705 55.548,249.705 55.275 C 249.705 55.003,249.781 54.733,249.874 54.676 C 249.966 54.618,250.042 54.311,250.042 53.992 C 250.042 53.673,250.118 53.412,250.211 53.412 C 250.303 53.412,250.379 52.995,250.379 52.485 C 250.379 51.976,250.455 51.559,250.548 51.559 C 250.647 51.559,250.716 50.966,250.716 50.116 C 250.716 49.323,250.780 48.714,250.859 48.763 C 250.938 48.811,251.018 47.868,251.038 46.666 C 251.062 45.215,251.014 44.482,250.895 44.482 C 250.783 44.482,250.716 43.951,250.716 43.060 C 250.716 42.277,250.640 41.591,250.548 41.533 C 250.455 41.476,250.379 41.055,250.379 40.597 C 250.379 40.139,250.303 39.764,250.211 39.764 C 250.118 39.764,250.042 39.461,250.042 39.090 C 250.042 38.719,249.966 38.416,249.874 38.416 C 249.781 38.416,249.705 38.204,249.705 37.944 C 249.705 37.685,249.630 37.397,249.538 37.305 C 249.445 37.213,249.353 36.932,249.332 36.682 C 249.312 36.431,249.235 36.226,249.163 36.226 C 249.090 36.226,249.031 36.076,249.031 35.894 C 249.031 35.711,248.880 35.292,248.694 34.962 C 248.509 34.632,248.357 34.251,248.357 34.115 C 248.357 33.978,248.281 33.867,248.189 33.867 C 248.096 33.867,248.020 33.715,248.020 33.530 C 248.020 33.345,247.944 33.193,247.852 33.193 C 247.759 33.193,247.683 33.041,247.683 32.856 C 247.683 32.671,247.616 32.519,247.534 32.519 C 247.387 32.519,247.122 31.884,247.162 31.626 C 247.174 31.553,246.964 31.173,246.696 30.784 C 246.428 30.394,246.201 30.017,246.191 29.946 C 246.182 29.875,246.021 29.652,245.833 29.451 C 245.646 29.250,245.493 29.003,245.493 28.902 C 245.493 28.801,245.341 28.609,245.156 28.475 C 244.971 28.342,244.819 28.135,244.819 28.017 C 244.819 27.898,244.743 27.801,244.650 27.801 C 244.558 27.801,244.482 27.732,244.482 27.647 C 244.482 27.562,244.235 27.227,243.934 26.902 C 243.633 26.577,243.008 25.896,242.544 25.390 C 242.081 24.884,241.645 24.503,241.575 24.545 C 241.506 24.586,241.449 24.502,241.449 24.357 C 241.449 24.213,241.384 24.094,241.304 24.094 C 241.224 24.094,240.695 23.639,240.128 23.083 C 239.562 22.527,239.021 22.072,238.926 22.072 C 238.831 22.072,238.753 21.997,238.753 21.904 C 238.753 21.811,238.639 21.735,238.500 21.735 C 238.361 21.735,238.248 21.678,238.248 21.607 C 238.248 21.536,237.944 21.291,237.574 21.061 C 237.203 20.832,236.900 20.587,236.900 20.516 C 236.900 20.445,236.760 20.388,236.589 20.388 C 236.417 20.388,236.105 20.238,235.895 20.056 C 235.684 19.873,235.350 19.673,235.153 19.612 C 234.955 19.550,234.756 19.453,234.709 19.396 C 234.554 19.205,233.164 18.534,232.924 18.534 C 232.794 18.534,232.687 18.458,232.687 18.366 C 232.687 18.273,232.536 18.197,232.350 18.197 C 232.165 18.197,232.013 18.121,232.013 18.029 C 232.013 17.936,231.899 17.860,231.758 17.860 C 231.511 17.860,231.332 17.790,230.541 17.381 C 230.334 17.274,229.974 17.186,229.741 17.186 C 229.508 17.186,229.318 17.102,229.318 16.998 C 229.318 16.892,229.169 16.849,228.978 16.899 C 228.791 16.948,228.542 16.892,228.424 16.774 C 228.215 16.565,227.657 16.414,226.411 16.232 C 226.064 16.181,225.779 16.086,225.779 16.019 C 225.779 15.953,225.387 15.881,224.908 15.859 C 224.428 15.837,223.909 15.751,223.754 15.668 C 223.294 15.422,214.649 15.498,214.183 15.752 " stroke="none" fill="#54cc54" fill-rule="evenodd"></path><path id="path1" d="M178.096 34.046 C 178.096 34.133,177.527 34.204,176.832 34.204 C 176.102 34.204,175.569 34.275,175.569 34.372 C 175.569 34.465,175.190 34.541,174.726 34.541 C 174.263 34.541,173.884 34.617,173.884 34.709 C 173.884 34.802,173.580 34.878,173.210 34.878 C 172.839 34.878,172.536 34.954,172.536 35.046 C 172.536 35.139,172.313 35.215,172.040 35.215 C 171.768 35.215,171.498 35.291,171.441 35.383 C 171.383 35.476,171.156 35.552,170.935 35.552 C 170.714 35.552,170.487 35.628,170.430 35.720 C 170.372 35.813,170.178 35.889,169.998 35.889 C 169.819 35.889,169.671 35.965,169.671 36.057 C 169.671 36.150,169.444 36.226,169.166 36.226 C 168.888 36.226,168.660 36.293,168.660 36.376 C 168.660 36.458,168.403 36.574,168.088 36.633 C 167.773 36.692,167.426 36.847,167.317 36.978 C 167.208 37.109,167.011 37.175,166.879 37.124 C 166.747 37.074,166.639 37.116,166.639 37.219 C 166.639 37.321,166.487 37.405,166.302 37.405 C 166.116 37.405,165.965 37.481,165.965 37.574 C 165.965 37.666,165.821 37.742,165.646 37.742 C 165.470 37.742,165.281 37.861,165.226 38.006 C 165.170 38.151,165.060 38.229,164.980 38.180 C 164.901 38.131,164.676 38.240,164.481 38.422 C 164.285 38.604,164.046 38.753,163.950 38.753 C 163.853 38.753,163.774 38.829,163.774 38.922 C 163.774 39.014,163.660 39.090,163.520 39.090 C 163.380 39.090,163.028 39.318,162.737 39.596 C 162.446 39.874,162.136 40.101,162.048 40.101 C 161.960 40.101,161.675 40.329,161.415 40.607 C 161.156 40.885,160.853 41.112,160.743 41.112 C 160.498 41.112,156.192 45.440,156.192 45.687 C 156.192 45.784,155.965 46.076,155.687 46.335 C 155.409 46.595,155.181 46.912,155.181 47.040 C 155.181 47.167,155.029 47.381,154.844 47.515 C 154.659 47.648,154.507 47.855,154.507 47.973 C 154.507 48.092,154.444 48.189,154.367 48.189 C 154.290 48.189,154.120 48.397,153.988 48.652 C 153.857 48.907,153.710 49.153,153.661 49.200 C 153.468 49.383,152.654 51.099,152.654 51.321 C 152.654 51.452,152.578 51.559,152.485 51.559 C 152.393 51.559,152.317 51.710,152.317 51.896 C 152.317 52.081,152.241 52.233,152.148 52.233 C 152.056 52.233,151.980 52.460,151.980 52.738 C 151.980 53.016,151.923 53.244,151.853 53.245 C 151.682 53.247,151.306 54.080,151.306 54.457 C 151.306 54.623,151.230 54.760,151.137 54.760 C 151.045 54.760,150.969 54.987,150.969 55.265 C 150.969 55.543,150.893 55.771,150.800 55.771 C 150.708 55.771,150.632 55.998,150.632 56.276 C 150.632 56.554,150.556 56.782,150.463 56.782 C 150.371 56.782,150.295 57.085,150.295 57.456 C 150.295 57.826,150.226 58.130,150.142 58.130 C 149.985 58.130,149.848 59.094,149.687 61.331 C 149.637 62.026,149.525 62.667,149.440 62.755 C 149.227 62.974,149.238 67.349,149.452 67.481 C 149.545 67.538,149.621 68.134,149.621 68.805 C 149.621 69.476,149.689 70.097,149.773 70.185 C 149.857 70.273,149.968 70.687,150.020 71.104 C 150.229 72.765,150.337 73.300,150.481 73.389 C 150.564 73.440,150.632 73.705,150.632 73.978 C 150.632 74.250,150.708 74.473,150.800 74.473 C 150.893 74.473,150.969 74.659,150.969 74.885 C 150.969 75.111,151.045 75.343,151.137 75.400 C 151.230 75.457,151.306 75.689,151.306 75.916 C 151.306 76.142,151.382 76.327,151.474 76.327 C 151.567 76.327,151.643 76.479,151.643 76.664 C 151.643 76.849,151.719 77.001,151.811 77.001 C 151.904 77.001,151.980 77.148,151.980 77.328 C 151.980 77.508,152.056 77.702,152.148 77.759 C 152.241 77.816,152.317 78.048,152.317 78.274 C 152.317 78.501,152.393 78.686,152.485 78.686 C 152.578 78.686,152.654 78.823,152.654 78.991 C 152.654 79.159,152.796 79.449,152.970 79.636 C 153.144 79.823,153.344 80.159,153.413 80.384 C 153.553 80.831,154.164 81.770,154.375 81.859 C 154.448 81.890,154.507 82.044,154.507 82.201 C 154.507 82.358,154.659 82.596,154.844 82.730 C 155.029 82.863,155.181 83.060,155.181 83.168 C 155.181 83.275,155.484 83.675,155.855 84.057 C 156.226 84.439,156.529 84.821,156.529 84.905 C 156.529 85.134,158.517 87.110,158.746 87.110 C 158.855 87.110,158.896 87.158,158.838 87.217 C 158.722 87.332,160.199 88.795,160.431 88.795 C 160.509 88.795,160.885 89.099,161.267 89.469 C 161.649 89.840,162.049 90.143,162.157 90.143 C 162.264 90.143,162.461 90.295,162.595 90.480 C 162.728 90.666,162.945 90.817,163.076 90.817 C 163.206 90.817,163.436 90.955,163.586 91.124 C 163.736 91.292,164.010 91.495,164.195 91.575 C 164.521 91.714,164.519 91.721,164.153 91.785 C 163.945 91.822,163.774 91.922,163.774 92.008 C 163.774 92.095,163.471 92.165,163.100 92.165 C 162.730 92.165,162.426 92.241,162.426 92.334 C 162.426 92.426,162.233 92.502,161.997 92.502 C 161.761 92.502,161.258 92.652,160.879 92.835 C 160.500 93.018,160.130 93.130,160.056 93.085 C 159.982 93.039,159.875 93.079,159.816 93.173 C 159.758 93.268,159.525 93.345,159.299 93.345 C 159.073 93.345,158.888 93.420,158.888 93.513 C 158.888 93.606,158.741 93.682,158.561 93.682 C 158.381 93.682,158.187 93.757,158.130 93.850 C 158.072 93.943,157.841 94.019,157.614 94.019 C 157.388 94.019,157.203 94.094,157.203 94.187 C 157.203 94.280,157.051 94.356,156.866 94.356 C 156.681 94.356,156.529 94.431,156.529 94.524 C 156.529 94.617,156.377 94.693,156.192 94.693 C 156.007 94.693,155.855 94.768,155.855 94.861 C 155.855 94.954,155.714 95.029,155.542 95.029 C 155.204 95.029,153.111 96.043,153.019 96.251 C 152.988 96.321,152.834 96.377,152.677 96.377 C 152.520 96.377,152.282 96.529,152.148 96.714 C 152.015 96.900,151.770 97.051,151.606 97.051 C 151.441 97.051,151.306 97.127,151.306 97.220 C 151.306 97.313,151.154 97.388,150.969 97.388 C 150.783 97.388,150.632 97.464,150.632 97.557 C 150.632 97.650,150.480 97.725,150.295 97.725 C 150.110 97.725,149.958 97.793,149.958 97.875 C 149.958 97.957,149.674 98.156,149.326 98.317 C 148.979 98.478,148.448 98.794,148.147 99.019 C 147.845 99.243,147.599 99.380,147.599 99.323 C 147.599 99.265,147.485 99.331,147.346 99.470 C 147.207 99.609,147.094 99.802,147.094 99.898 C 147.094 99.995,146.985 100.032,146.853 99.981 C 146.720 99.930,146.372 100.120,146.070 100.408 C 145.771 100.693,145.441 100.927,145.337 100.927 C 145.232 100.927,145.037 101.078,144.903 101.264 C 144.770 101.449,144.572 101.601,144.465 101.601 C 144.358 101.601,143.957 101.904,143.575 102.275 C 143.193 102.645,142.815 102.949,142.736 102.949 C 142.656 102.949,142.248 103.309,141.830 103.749 C 141.412 104.189,140.970 104.573,140.849 104.602 C 140.727 104.631,140.490 104.813,140.322 105.007 C 140.154 105.201,140.017 105.307,140.017 105.243 C 140.017 105.124,137.167 107.981,136.184 109.085 C 135.882 109.423,135.636 109.811,135.636 109.947 C 135.636 110.083,135.566 110.194,135.481 110.194 C 135.288 110.194,133.951 111.542,133.951 111.737 C 133.951 111.815,133.648 112.191,133.277 112.573 C 132.906 112.955,132.603 113.355,132.603 113.462 C 132.603 113.570,132.452 113.767,132.266 113.901 C 132.081 114.034,131.929 114.222,131.929 114.317 C 131.929 114.412,131.699 114.756,131.419 115.080 C 131.139 115.404,130.866 115.840,130.812 116.049 C 130.758 116.257,130.646 116.428,130.563 116.428 C 130.480 116.428,130.413 116.507,130.413 116.604 C 130.413 116.700,130.261 116.942,130.076 117.141 C 129.890 117.340,129.739 117.602,129.739 117.723 C 129.739 117.845,129.663 117.944,129.570 117.944 C 129.478 117.944,129.402 118.061,129.402 118.204 C 129.402 118.347,129.250 118.627,129.065 118.826 C 128.880 119.025,128.728 119.287,128.728 119.408 C 128.728 119.530,128.652 119.629,128.559 119.629 C 128.467 119.629,128.391 119.781,128.391 119.966 C 128.391 120.152,128.315 120.303,128.222 120.303 C 128.130 120.303,128.054 120.455,128.054 120.640 C 128.054 120.826,127.978 120.977,127.885 120.977 C 127.793 120.977,127.717 121.091,127.717 121.230 C 127.717 121.369,127.641 121.483,127.548 121.483 C 127.456 121.483,127.380 121.634,127.380 121.820 C 127.380 122.005,127.304 122.157,127.211 122.157 C 127.119 122.157,127.043 122.308,127.043 122.494 C 127.043 122.679,126.967 122.831,126.874 122.831 C 126.782 122.831,126.706 122.982,126.706 123.168 C 126.706 123.353,126.630 123.505,126.537 123.505 C 126.445 123.505,126.369 123.619,126.369 123.760 C 126.369 124.014,126.042 124.693,125.843 124.853 C 125.739 124.935,125.458 125.956,125.447 126.285 C 125.445 126.377,125.347 126.554,125.230 126.677 C 125.113 126.801,125.061 126.971,125.114 127.057 C 125.166 127.142,125.129 127.211,125.031 127.211 C 124.933 127.211,124.853 127.401,124.853 127.633 C 124.853 127.864,124.777 128.054,124.684 128.054 C 124.591 128.054,124.516 128.281,124.516 128.559 C 124.516 128.837,124.440 129.065,124.347 129.065 C 124.254 129.065,124.179 129.250,124.179 129.476 C 124.179 129.702,124.103 129.934,124.010 129.992 C 123.917 130.049,123.842 130.319,123.842 130.591 C 123.842 130.864,123.766 131.087,123.673 131.087 C 123.580 131.087,123.505 131.314,123.505 131.592 C 123.505 131.870,123.429 132.098,123.336 132.098 C 123.243 132.098,123.168 132.321,123.168 132.593 C 123.168 132.866,123.092 133.136,122.999 133.193 C 122.906 133.250,122.831 133.516,122.831 133.783 C 122.831 134.050,122.755 134.315,122.662 134.372 C 122.570 134.430,122.494 134.813,122.494 135.225 C 122.494 135.636,122.418 135.973,122.325 135.973 C 122.233 135.973,122.157 136.352,122.157 136.816 C 122.157 137.279,122.081 137.658,121.988 137.658 C 121.896 137.658,121.820 138.075,121.820 138.585 C 121.820 139.094,121.744 139.511,121.651 139.511 C 121.555 139.511,121.483 140.014,121.483 140.681 C 121.483 141.324,121.407 141.897,121.314 141.955 C 121.208 142.020,121.146 143.838,121.146 146.851 L 121.146 151.643 181.387 151.643 L 241.628 151.643 241.539 148.315 C 241.411 143.550,241.282 141.472,241.101 141.289 C 241.014 141.201,240.944 140.656,240.944 140.077 C 240.944 139.499,240.868 138.979,240.775 138.922 C 240.682 138.864,240.607 138.405,240.607 137.901 C 240.607 137.397,240.538 136.984,240.455 136.984 C 240.372 136.984,240.260 136.662,240.208 136.268 C 239.977 134.546,239.888 134.112,239.746 134.024 C 239.663 133.973,239.596 133.713,239.596 133.446 C 239.596 133.179,239.520 132.913,239.427 132.856 C 239.334 132.799,239.259 132.529,239.259 132.256 C 239.259 131.984,239.183 131.761,239.090 131.761 C 238.997 131.761,238.922 131.533,238.922 131.255 C 238.922 130.977,238.846 130.750,238.753 130.750 C 238.660 130.750,238.585 130.522,238.585 130.244 C 238.585 129.966,238.509 129.739,238.416 129.739 C 238.324 129.739,238.248 129.511,238.248 129.233 C 238.248 128.955,238.172 128.728,238.079 128.728 C 237.987 128.728,237.911 128.500,237.911 128.222 C 237.911 127.944,237.835 127.717,237.742 127.717 C 237.650 127.717,237.574 127.527,237.574 127.296 C 237.574 127.064,237.498 126.874,237.405 126.874 C 237.313 126.874,237.237 126.723,237.237 126.537 C 237.237 126.352,237.161 126.201,237.068 126.201 C 236.976 126.201,236.900 126.053,236.900 125.873 C 236.900 125.694,236.824 125.500,236.731 125.442 C 236.639 125.385,236.563 125.153,236.563 124.927 C 236.563 124.701,236.487 124.516,236.394 124.516 C 236.302 124.516,236.226 124.387,236.226 124.231 C 236.226 123.904,234.703 120.753,234.504 120.668 C 234.432 120.637,234.372 120.484,234.372 120.326 C 234.372 120.169,234.221 119.931,234.035 119.798 C 233.850 119.664,233.698 119.420,233.698 119.255 C 233.698 119.090,233.623 118.955,233.530 118.955 C 233.437 118.955,233.361 118.838,233.361 118.696 C 233.361 118.553,233.210 118.273,233.024 118.074 C 232.839 117.875,232.687 117.613,232.687 117.491 C 232.687 117.370,232.612 117.270,232.519 117.270 C 232.426 117.270,232.350 117.171,232.350 117.049 C 232.350 116.928,232.199 116.666,232.013 116.467 C 231.828 116.268,231.676 116.026,231.676 115.930 C 231.676 115.833,231.613 115.754,231.536 115.754 C 231.459 115.754,231.289 115.545,231.157 115.291 C 230.904 114.799,230.851 114.723,230.325 114.085 C 230.142 113.863,229.992 113.626,229.992 113.559 C 229.992 113.492,229.726 113.148,229.402 112.794 C 229.078 112.440,228.812 112.083,228.812 112.001 C 228.812 111.919,228.509 111.561,228.138 111.205 C 227.767 110.849,227.464 110.512,227.464 110.457 C 227.464 110.357,226.391 109.228,223.490 106.276 C 221.746 104.500,221.136 103.960,220.879 103.960 C 220.779 103.960,220.407 103.656,220.051 103.286 C 219.694 102.915,219.352 102.612,219.289 102.612 C 219.226 102.612,218.962 102.384,218.703 102.106 C 218.443 101.828,218.147 101.601,218.045 101.601 C 217.943 101.601,217.860 101.525,217.860 101.432 C 217.860 101.340,217.763 101.264,217.645 101.264 C 217.526 101.264,217.320 101.112,217.186 100.927 C 217.053 100.741,216.836 100.590,216.705 100.590 C 216.575 100.590,216.345 100.457,216.195 100.294 C 216.045 100.131,215.714 99.891,215.459 99.760 C 215.204 99.629,214.996 99.459,214.996 99.382 C 214.996 99.305,214.921 99.242,214.831 99.242 C 214.740 99.242,214.250 98.976,213.743 98.652 C 213.236 98.328,212.742 98.062,212.645 98.062 C 212.548 98.062,212.468 97.987,212.468 97.894 C 212.468 97.801,212.352 97.725,212.209 97.725 C 212.066 97.725,211.786 97.574,211.587 97.388 C 211.388 97.203,211.126 97.051,211.004 97.051 C 210.883 97.051,210.783 96.976,210.783 96.883 C 210.783 96.790,210.632 96.714,210.447 96.714 C 210.261 96.714,210.110 96.639,210.110 96.546 C 210.110 96.453,209.958 96.377,209.773 96.377 C 209.587 96.377,209.436 96.302,209.436 96.209 C 209.436 96.116,209.290 96.040,209.113 96.040 C 208.935 96.040,208.764 95.983,208.734 95.913 C 208.703 95.843,208.147 95.532,207.498 95.222 C 206.849 94.911,206.187 94.589,206.026 94.506 C 205.865 94.423,205.619 94.356,205.478 94.356 C 205.338 94.356,205.223 94.280,205.223 94.187 C 205.223 94.094,205.076 94.019,204.896 94.019 C 204.716 94.019,204.522 93.943,204.465 93.850 C 204.408 93.757,204.176 93.682,203.950 93.682 C 203.723 93.682,203.538 93.614,203.538 93.532 C 203.538 93.396,202.661 93.156,202.293 93.191 C 202.211 93.199,202.097 93.141,202.041 93.063 C 201.898 92.866,200.811 92.502,200.367 92.502 C 200.165 92.502,200.000 92.426,200.000 92.334 C 200.000 92.241,199.788 92.165,199.528 92.165 C 199.269 92.165,198.984 92.096,198.896 92.011 C 198.808 91.926,198.547 91.822,198.315 91.780 C 197.895 91.703,197.894 91.702,198.273 91.577 C 198.481 91.508,198.652 91.385,198.652 91.303 C 198.652 91.221,198.747 91.154,198.863 91.154 C 198.979 91.154,199.339 90.926,199.663 90.649 C 199.987 90.371,200.352 90.144,200.473 90.144 C 200.595 90.143,200.647 90.067,200.590 89.975 C 200.532 89.882,200.604 89.806,200.748 89.806 C 200.893 89.806,201.011 89.748,201.011 89.678 C 201.011 89.607,201.307 89.366,201.670 89.142 C 202.032 88.918,202.430 88.586,202.554 88.403 C 202.678 88.221,203.008 87.855,203.286 87.590 C 205.585 85.401,206.234 84.748,206.234 84.624 C 206.234 84.545,206.496 84.194,206.817 83.844 C 207.137 83.494,207.446 83.063,207.502 82.885 C 207.559 82.707,207.664 82.561,207.736 82.561 C 207.809 82.561,208.005 82.258,208.172 81.887 C 208.339 81.516,208.540 81.213,208.619 81.213 C 208.697 81.213,208.762 81.099,208.762 80.960 C 208.762 80.821,208.837 80.708,208.930 80.708 C 209.023 80.708,209.099 80.556,209.099 80.371 C 209.099 80.185,209.174 80.034,209.267 80.034 C 209.360 80.034,209.436 79.882,209.436 79.697 C 209.436 79.511,209.511 79.360,209.604 79.360 C 209.697 79.360,209.773 79.208,209.773 79.023 C 209.773 78.837,209.848 78.686,209.941 78.686 C 210.034 78.686,210.110 78.534,210.110 78.349 C 210.110 78.163,210.185 78.012,210.278 78.012 C 210.371 78.012,210.447 77.860,210.447 77.675 C 210.447 77.489,210.509 77.338,210.585 77.338 C 210.660 77.338,210.826 76.959,210.952 76.495 C 211.078 76.032,211.244 75.653,211.319 75.653 C 211.395 75.653,211.457 75.468,211.457 75.242 C 211.457 75.015,211.533 74.783,211.626 74.726 C 211.719 74.669,211.794 74.441,211.794 74.221 C 211.794 74.000,211.870 73.773,211.963 73.715 C 212.056 73.658,212.131 73.350,212.131 73.031 C 212.131 72.712,212.207 72.452,212.300 72.452 C 212.393 72.452,212.468 72.072,212.468 71.609 C 212.468 71.132,212.545 70.767,212.646 70.767 C 212.754 70.767,212.809 70.376,212.787 69.764 C 212.766 69.177,212.835 68.660,212.953 68.517 C 213.313 68.083,213.012 59.808,212.622 59.402 C 212.538 59.314,212.468 58.916,212.468 58.517 C 212.468 58.119,212.393 57.793,212.300 57.793 C 212.207 57.793,212.131 57.489,212.131 57.119 C 212.131 56.748,212.056 56.445,211.963 56.445 C 211.870 56.445,211.794 56.217,211.794 55.939 C 211.794 55.661,211.719 55.434,211.626 55.434 C 211.533 55.434,211.457 55.206,211.457 54.928 C 211.457 54.650,211.382 54.423,211.289 54.423 C 211.196 54.423,211.120 54.233,211.120 54.002 C 211.120 53.770,211.045 53.580,210.952 53.580 C 210.859 53.580,210.783 53.429,210.783 53.243 C 210.783 53.058,210.708 52.906,210.615 52.906 C 210.522 52.906,210.447 52.755,210.447 52.570 C 210.447 52.384,210.371 52.233,210.278 52.233 C 210.185 52.233,210.110 52.057,210.110 51.843 C 210.110 51.629,209.958 51.291,209.773 51.092 C 209.587 50.893,209.436 50.613,209.436 50.470 C 209.436 50.328,209.360 50.211,209.267 50.211 C 209.174 50.211,209.099 50.059,209.099 49.874 C 209.099 49.688,209.023 49.537,208.930 49.537 C 208.837 49.537,208.762 49.372,208.762 49.172 C 208.762 48.971,208.713 48.855,208.654 48.914 C 208.595 48.973,208.397 48.721,208.215 48.353 C 208.033 47.984,207.816 47.683,207.733 47.683 C 207.650 47.683,207.582 47.588,207.582 47.473 C 207.582 47.357,207.354 46.997,207.077 46.672 C 206.799 46.348,206.572 45.980,206.572 45.854 C 206.571 45.717,206.467 45.665,206.310 45.726 C 206.166 45.781,206.092 45.755,206.146 45.667 C 206.242 45.512,205.282 44.402,203.981 43.165 C 203.623 42.823,202.925 42.146,202.430 41.660 C 201.936 41.173,201.463 40.775,201.380 40.775 C 201.297 40.775,200.991 40.548,200.700 40.270 C 200.410 39.992,200.074 39.764,199.954 39.764 C 199.835 39.764,199.628 39.612,199.495 39.427 C 199.361 39.242,199.133 39.090,198.989 39.090 C 198.845 39.090,198.617 38.939,198.484 38.753 C 198.350 38.568,198.106 38.416,197.941 38.416 C 197.776 38.416,197.641 38.340,197.641 38.248 C 197.641 38.155,197.489 38.079,197.304 38.079 C 197.119 38.079,196.967 38.017,196.967 37.942 C 196.967 37.752,195.619 37.049,195.452 37.151 C 195.378 37.197,195.275 37.125,195.224 36.991 C 195.171 36.853,194.981 36.776,194.785 36.814 C 194.595 36.850,194.440 36.809,194.440 36.722 C 194.440 36.634,194.288 36.563,194.103 36.563 C 193.917 36.563,193.766 36.487,193.766 36.394 C 193.766 36.302,193.619 36.226,193.439 36.226 C 193.259 36.226,193.065 36.150,193.008 36.057 C 192.950 35.965,192.718 35.889,192.492 35.889 C 192.266 35.889,192.081 35.813,192.081 35.720 C 192.081 35.628,191.853 35.552,191.575 35.552 C 191.297 35.552,191.070 35.476,191.070 35.383 C 191.070 35.291,190.805 35.215,190.480 35.215 C 190.156 35.215,189.890 35.139,189.890 35.046 C 189.890 34.954,189.587 34.878,189.217 34.878 C 188.846 34.878,188.543 34.802,188.543 34.709 C 188.543 34.617,188.163 34.541,187.700 34.541 C 187.237 34.541,186.858 34.465,186.858 34.372 C 186.858 34.275,186.324 34.204,185.594 34.204 C 184.850 34.204,184.330 34.133,184.330 34.033 C 184.330 33.922,183.221 33.866,181.213 33.875 C 179.399 33.883,178.096 33.954,178.096 34.046 M183.993 40.944 C 183.993 41.037,184.439 41.112,184.994 41.112 C 185.545 41.112,186.042 41.188,186.099 41.281 C 186.157 41.373,186.465 41.449,186.786 41.449 C 187.106 41.449,187.499 41.518,187.660 41.602 C 188.141 41.853,189.731 42.291,190.163 42.291 C 190.384 42.291,190.564 42.367,190.564 42.460 C 190.564 42.553,190.716 42.628,190.901 42.628 C 191.087 42.628,191.238 42.704,191.238 42.797 C 191.238 42.890,191.390 42.965,191.575 42.965 C 191.761 42.965,191.912 43.027,191.912 43.103 C 191.912 43.178,192.178 43.344,192.502 43.471 C 192.826 43.598,193.092 43.764,193.092 43.839 C 193.092 43.915,193.243 43.976,193.429 43.976 C 193.614 43.976,193.766 44.052,193.766 44.145 C 193.766 44.238,193.901 44.313,194.066 44.313 C 194.230 44.313,194.475 44.465,194.608 44.650 C 194.742 44.836,194.969 44.987,195.114 44.987 C 195.258 44.987,195.486 45.139,195.619 45.324 C 195.753 45.510,195.950 45.661,196.057 45.661 C 196.165 45.661,196.548 45.946,196.910 46.293 C 197.271 46.641,197.868 47.151,198.236 47.426 C 199.086 48.064,199.663 48.634,199.663 48.838 C 199.663 48.925,200.042 49.384,200.505 49.857 C 200.969 50.331,201.348 50.814,201.348 50.932 C 201.348 51.051,201.500 51.256,201.685 51.390 C 201.870 51.524,202.022 51.730,202.022 51.848 C 202.022 51.967,202.098 52.064,202.190 52.064 C 202.283 52.064,202.359 52.178,202.359 52.317 C 202.359 52.456,202.435 52.570,202.527 52.570 C 202.620 52.570,202.696 52.683,202.696 52.822 C 202.696 52.961,202.776 53.075,202.874 53.075 C 202.972 53.075,203.011 53.142,202.961 53.224 C 202.910 53.305,203.020 53.564,203.204 53.798 C 203.388 54.032,203.538 54.344,203.538 54.492 C 203.538 54.639,203.600 54.760,203.676 54.760 C 203.752 54.760,203.918 55.139,204.044 55.602 C 204.170 56.066,204.335 56.445,204.411 56.445 C 204.487 56.445,204.549 56.634,204.549 56.866 C 204.549 57.098,204.625 57.287,204.718 57.287 C 204.810 57.287,204.886 57.515,204.886 57.793 C 204.886 58.071,204.962 58.298,205.055 58.298 C 205.147 58.298,205.223 58.526,205.223 58.804 C 205.223 59.082,205.299 59.309,205.392 59.309 C 205.484 59.309,205.560 59.688,205.560 60.152 C 205.560 60.615,205.636 60.994,205.729 60.994 C 205.825 60.994,205.897 61.500,205.897 62.174 C 205.897 62.848,205.969 63.353,206.066 63.353 C 206.167 63.353,206.234 64.024,206.234 65.028 C 206.234 65.963,206.160 66.749,206.066 66.807 C 205.973 66.864,205.897 67.437,205.897 68.081 C 205.897 68.748,205.825 69.250,205.729 69.250 C 205.636 69.250,205.560 69.634,205.560 70.103 C 205.560 70.628,205.496 70.915,205.392 70.851 C 205.294 70.790,205.223 70.958,205.223 71.252 C 205.223 71.530,205.147 71.805,205.055 71.862 C 204.962 71.919,204.886 72.147,204.886 72.367 C 204.886 72.588,204.810 72.816,204.718 72.873 C 204.625 72.930,204.549 73.162,204.549 73.388 C 204.549 73.614,204.473 73.799,204.381 73.799 C 204.288 73.799,204.212 73.902,204.212 74.028 C 204.212 74.154,203.871 74.953,203.454 75.803 C 203.037 76.654,202.696 77.423,202.696 77.512 C 202.696 77.602,202.616 77.675,202.517 77.675 C 202.419 77.675,202.386 77.751,202.443 77.843 C 202.500 77.936,202.429 78.012,202.285 78.012 C 202.140 78.012,202.022 78.126,202.022 78.266 C 202.022 78.406,201.794 78.758,201.516 79.049 C 201.238 79.340,201.011 79.647,201.011 79.731 C 201.011 79.815,200.552 80.335,199.990 80.885 C 199.429 81.436,199.022 81.887,199.087 81.887 C 199.151 81.887,198.984 82.054,198.717 82.257 C 198.450 82.461,197.875 82.992,197.440 83.437 C 197.005 83.882,196.559 84.246,196.449 84.246 C 196.339 84.246,196.126 84.379,195.976 84.542 C 195.826 84.705,195.495 84.945,195.240 85.076 C 194.985 85.207,194.777 85.377,194.777 85.454 C 194.777 85.531,194.642 85.594,194.477 85.594 C 194.312 85.594,194.068 85.746,193.934 85.931 C 193.801 86.116,193.556 86.268,193.392 86.268 C 193.227 86.268,193.092 86.344,193.092 86.436 C 193.092 86.529,192.940 86.605,192.755 86.605 C 192.570 86.605,192.418 86.681,192.418 86.773 C 192.418 86.866,192.338 86.942,192.240 86.942 C 192.142 86.942,191.742 87.088,191.350 87.267 C 190.958 87.445,190.412 87.645,190.137 87.711 C 189.863 87.777,189.562 87.886,189.469 87.953 C 189.377 88.020,189.092 88.125,188.837 88.186 C 188.583 88.246,188.374 88.357,188.374 88.432 C 188.374 88.507,188.147 88.535,187.869 88.494 C 187.565 88.450,187.363 88.495,187.363 88.608 C 187.363 88.720,187.027 88.795,186.521 88.795 C 186.057 88.795,185.678 88.871,185.678 88.964 C 185.678 89.059,185.204 89.132,184.593 89.132 C 183.996 89.132,183.461 89.208,183.404 89.301 C 183.343 89.398,182.422 89.469,181.213 89.469 C 180.004 89.469,179.083 89.398,179.023 89.301 C 178.965 89.208,178.430 89.132,177.833 89.132 C 177.171 89.132,176.748 89.062,176.748 88.951 C 176.748 88.844,176.474 88.789,176.076 88.818 C 175.706 88.845,175.312 88.775,175.200 88.662 C 175.088 88.550,174.826 88.458,174.618 88.458 C 174.411 88.458,174.194 88.382,174.136 88.290 C 174.079 88.197,173.852 88.121,173.631 88.121 C 173.410 88.121,173.183 88.045,173.126 87.953 C 173.068 87.860,172.841 87.784,172.620 87.784 C 172.399 87.784,172.169 87.703,172.107 87.604 C 172.046 87.505,171.895 87.463,171.771 87.511 C 171.648 87.558,171.520 87.516,171.487 87.417 C 171.454 87.318,171.221 87.237,170.970 87.237 C 170.719 87.237,170.514 87.170,170.514 87.089 C 170.514 87.008,170.362 86.942,170.177 86.942 C 169.992 86.942,169.840 86.866,169.840 86.773 C 169.840 86.681,169.726 86.605,169.587 86.605 C 169.448 86.605,169.334 86.529,169.334 86.436 C 169.334 86.344,169.221 86.268,169.082 86.268 C 168.943 86.268,168.829 86.192,168.829 86.099 C 168.829 86.007,168.715 85.931,168.576 85.931 C 168.437 85.931,168.324 85.855,168.324 85.762 C 168.324 85.670,168.189 85.594,168.024 85.594 C 167.859 85.594,167.615 85.442,167.481 85.257 C 167.347 85.072,167.134 84.920,167.006 84.920 C 166.878 84.920,166.561 84.693,166.302 84.414 C 166.042 84.136,165.754 83.909,165.662 83.909 C 165.430 83.909,161.752 80.251,161.752 80.020 C 161.752 79.916,161.525 79.619,161.247 79.360 C 160.969 79.100,160.741 78.783,160.741 78.655 C 160.741 78.528,160.590 78.314,160.404 78.180 C 160.219 78.047,160.067 77.837,160.067 77.715 C 160.067 77.592,159.916 77.329,159.730 77.131 C 159.545 76.932,159.393 76.669,159.393 76.548 C 159.393 76.426,159.318 76.327,159.225 76.327 C 159.132 76.327,159.056 76.213,159.056 76.074 C 159.056 75.935,158.981 75.821,158.888 75.821 C 158.795 75.821,158.719 75.670,158.719 75.484 C 158.719 75.299,158.650 75.147,158.566 75.147 C 158.481 75.147,158.359 74.825,158.294 74.431 C 158.229 74.037,158.122 73.639,158.057 73.547 C 157.991 73.454,157.841 73.037,157.722 72.620 C 157.604 72.203,157.439 71.730,157.355 71.569 C 157.271 71.408,157.203 71.091,157.203 70.863 C 157.203 70.636,157.127 70.403,157.035 70.345 C 156.942 70.288,156.866 69.920,156.866 69.527 C 156.866 69.134,156.785 68.731,156.686 68.633 C 156.486 68.432,156.455 61.925,156.652 61.605 C 156.716 61.501,156.832 61.037,156.909 60.574 C 157.201 58.812,157.244 58.630,157.390 58.539 C 157.473 58.489,157.540 58.299,157.540 58.118 C 157.540 57.936,157.613 57.657,157.703 57.496 C 157.925 57.098,158.382 55.649,158.382 55.344 C 158.382 55.208,158.458 55.097,158.551 55.097 C 158.644 55.097,158.719 54.945,158.719 54.760 C 158.719 54.575,158.795 54.423,158.888 54.423 C 158.981 54.423,159.056 54.229,159.056 53.992 C 159.056 53.747,159.129 53.606,159.225 53.665 C 159.318 53.722,159.393 53.651,159.393 53.506 C 159.393 53.362,159.469 53.243,159.562 53.243 C 159.655 53.243,159.730 53.130,159.730 52.991 C 159.730 52.852,159.806 52.738,159.899 52.738 C 159.992 52.738,160.067 52.624,160.067 52.485 C 160.067 52.346,160.151 52.233,160.254 52.233 C 160.357 52.233,160.397 52.119,160.343 51.980 C 160.284 51.826,160.343 51.727,160.494 51.727 C 160.630 51.727,160.741 51.630,160.741 51.512 C 160.741 51.393,160.893 51.187,161.078 51.053 C 161.264 50.919,161.415 50.725,161.415 50.622 C 161.415 50.475,162.621 49.088,163.724 47.968 C 164.468 47.212,165.896 45.998,166.042 45.998 C 166.144 45.998,166.337 45.847,166.470 45.661 C 166.604 45.476,166.796 45.324,166.897 45.324 C 166.998 45.324,167.228 45.192,167.407 45.029 C 167.587 44.867,167.942 44.627,168.197 44.496 C 168.452 44.364,168.660 44.193,168.660 44.116 C 168.660 44.039,168.812 43.976,168.997 43.976 C 169.183 43.976,169.334 43.901,169.334 43.808 C 169.334 43.715,169.448 43.639,169.587 43.639 C 169.726 43.639,169.840 43.564,169.840 43.471 C 169.840 43.378,169.992 43.302,170.177 43.302 C 170.362 43.302,170.514 43.227,170.514 43.134 C 170.514 43.041,170.666 42.965,170.851 42.965 C 171.036 42.965,171.188 42.890,171.188 42.797 C 171.188 42.704,171.415 42.628,171.693 42.628 C 171.971 42.628,172.199 42.553,172.199 42.460 C 172.199 42.367,172.346 42.291,172.526 42.291 C 172.706 42.291,172.901 42.214,172.959 42.120 C 173.017 42.026,173.142 41.997,173.237 42.056 C 173.333 42.115,173.574 42.088,173.773 41.998 C 174.485 41.674,175.348 41.449,175.875 41.449 C 176.170 41.449,176.411 41.373,176.411 41.281 C 176.411 41.187,176.857 41.112,177.412 41.112 C 177.963 41.112,178.460 41.036,178.517 40.944 C 178.580 40.843,179.698 40.775,181.307 40.775 C 182.986 40.775,183.993 40.838,183.993 40.944 M186.324 96.547 C 186.355 96.639,186.938 96.714,187.620 96.714 C 188.302 96.714,188.907 96.790,188.964 96.883 C 189.021 96.976,189.476 97.051,189.975 97.051 C 190.473 97.051,190.928 97.127,190.986 97.220 C 191.043 97.313,191.422 97.388,191.828 97.388 C 192.234 97.388,192.613 97.464,192.671 97.557 C 192.728 97.650,193.069 97.725,193.429 97.725 C 193.789 97.725,194.126 97.795,194.179 97.881 C 194.232 97.966,194.767 98.089,195.368 98.153 C 195.970 98.217,196.462 98.337,196.462 98.419 C 196.462 98.501,196.689 98.568,196.967 98.568 C 197.245 98.568,197.473 98.644,197.473 98.736 C 197.473 98.829,197.658 98.905,197.884 98.905 C 198.110 98.905,198.342 98.981,198.399 99.073 C 198.457 99.166,198.689 99.242,198.915 99.242 C 199.141 99.242,199.326 99.318,199.326 99.410 C 199.326 99.503,199.553 99.579,199.832 99.579 C 200.110 99.579,200.337 99.655,200.337 99.747 C 200.337 99.840,200.484 99.916,200.664 99.916 C 200.844 99.916,201.038 99.992,201.095 100.084 C 201.152 100.177,201.384 100.253,201.611 100.253 C 201.837 100.253,202.022 100.329,202.022 100.421 C 202.022 100.514,202.174 100.590,202.359 100.590 C 202.544 100.590,202.696 100.666,202.696 100.758 C 202.696 100.851,202.885 100.927,203.117 100.927 C 203.349 100.927,203.538 101.003,203.538 101.095 C 203.538 101.188,203.690 101.264,203.875 101.264 C 204.061 101.264,204.212 101.340,204.212 101.432 C 204.212 101.525,204.364 101.601,204.549 101.601 C 204.735 101.601,204.886 101.676,204.886 101.769 C 204.886 101.862,205.038 101.938,205.223 101.938 C 205.409 101.938,205.560 102.013,205.560 102.106 C 205.560 102.199,205.712 102.275,205.897 102.275 C 206.083 102.275,206.234 102.350,206.234 102.443 C 206.234 102.536,206.386 102.612,206.571 102.612 C 206.757 102.612,206.908 102.674,206.908 102.751 C 206.908 102.828,207.287 103.069,207.751 103.286 C 208.214 103.503,208.593 103.735,208.593 103.802 C 208.593 103.868,208.783 103.971,209.014 104.029 C 209.246 104.087,209.436 104.209,209.436 104.300 C 209.436 104.391,209.587 104.465,209.773 104.465 C 209.958 104.465,210.110 104.528,210.110 104.605 C 210.110 104.682,210.318 104.853,210.573 104.984 C 210.828 105.116,211.183 105.356,211.363 105.518 C 211.543 105.680,211.772 105.813,211.873 105.813 C 211.974 105.813,212.166 105.965,212.300 106.150 C 212.434 106.335,212.647 106.487,212.775 106.487 C 212.903 106.487,213.220 106.714,213.479 106.992 C 213.739 107.270,214.007 107.498,214.075 107.498 C 214.143 107.498,214.340 107.661,214.513 107.861 C 214.686 108.060,214.827 108.163,214.827 108.089 C 214.827 108.015,215.009 108.136,215.230 108.358 C 215.452 108.580,215.875 108.951,216.170 109.183 C 217.089 109.903,222.578 115.451,222.578 115.660 C 222.578 115.711,222.881 116.066,223.252 116.448 C 223.623 116.830,223.926 117.210,223.926 117.292 C 223.926 117.375,224.153 117.680,224.431 117.971 C 224.709 118.262,224.937 118.598,224.937 118.718 C 224.937 118.838,225.070 119.035,225.232 119.156 C 225.394 119.278,225.551 119.490,225.582 119.629 C 225.612 119.768,225.745 120.002,225.877 120.148 C 226.008 120.294,226.116 120.486,226.116 120.574 C 226.116 120.662,226.268 120.844,226.453 120.977 C 226.639 121.111,226.790 121.355,226.790 121.520 C 226.790 121.685,226.866 121.820,226.959 121.820 C 227.051 121.820,227.127 121.919,227.127 122.041 C 227.127 122.162,227.279 122.424,227.464 122.623 C 227.650 122.822,227.801 123.102,227.801 123.245 C 227.801 123.388,227.877 123.505,227.970 123.505 C 228.062 123.505,228.138 123.656,228.138 123.842 C 228.138 124.027,228.214 124.179,228.307 124.179 C 228.399 124.179,228.475 124.330,228.475 124.516 C 228.475 124.701,228.537 124.853,228.612 124.853 C 228.688 124.853,228.853 125.118,228.981 125.442 C 229.108 125.767,229.274 126.032,229.349 126.032 C 229.424 126.032,229.486 126.184,229.486 126.369 C 229.486 126.554,229.562 126.706,229.655 126.706 C 229.747 126.706,229.823 126.858,229.823 127.043 C 229.823 127.228,229.899 127.380,229.992 127.380 C 230.084 127.380,230.160 127.532,230.160 127.717 C 230.160 127.902,230.236 128.054,230.329 128.054 C 230.421 128.054,230.497 128.281,230.497 128.559 C 230.497 128.837,230.586 129.065,230.694 129.065 C 230.802 129.065,230.842 129.113,230.784 129.171 C 230.725 129.230,230.766 129.438,230.874 129.635 C 230.983 129.831,231.079 130.067,231.089 130.160 C 231.111 130.372,231.316 130.913,231.520 131.295 C 231.606 131.456,231.676 131.740,231.676 131.927 C 231.676 132.114,231.752 132.266,231.845 132.266 C 231.938 132.266,232.013 132.494,232.013 132.772 C 232.013 133.050,232.089 133.277,232.182 133.277 C 232.275 133.277,232.350 133.538,232.350 133.857 C 232.350 134.176,232.426 134.484,232.519 134.541 C 232.612 134.598,232.687 134.868,232.687 135.141 C 232.687 135.413,232.763 135.636,232.856 135.636 C 232.949 135.636,233.024 135.939,233.024 136.310 C 233.024 136.681,233.100 136.984,233.193 136.984 C 233.286 136.984,233.361 137.325,233.361 137.742 C 233.361 138.159,233.437 138.500,233.530 138.500 C 233.623 138.500,233.698 138.913,233.698 139.417 C 233.698 139.921,233.774 140.381,233.867 140.438 C 233.960 140.495,234.035 141.031,234.035 141.627 C 234.035 142.239,234.109 142.713,234.204 142.713 C 234.300 142.713,234.372 143.218,234.372 143.892 L 234.372 145.072 181.213 145.072 L 128.054 145.072 128.054 144.398 C 128.054 144.027,128.130 143.724,128.222 143.724 C 128.315 143.724,128.391 143.643,128.391 143.545 C 128.391 143.447,128.296 143.420,128.180 143.486 C 128.012 143.581,128.012 143.559,128.180 143.378 C 128.298 143.251,128.391 142.724,128.391 142.183 C 128.391 141.651,128.467 141.169,128.559 141.112 C 128.652 141.055,128.728 140.600,128.728 140.101 C 128.728 139.602,128.804 139.147,128.896 139.090 C 128.989 139.033,129.065 138.649,129.065 138.238 C 129.065 137.826,129.141 137.489,129.233 137.489 C 129.326 137.489,129.402 137.191,129.402 136.825 C 129.402 136.460,129.469 136.120,129.552 136.069 C 129.634 136.018,129.748 135.710,129.804 135.385 C 129.861 135.060,129.954 134.528,130.010 134.204 C 130.066 133.880,130.171 133.614,130.243 133.614 C 130.315 133.614,130.426 133.197,130.490 132.687 C 130.553 132.178,130.676 131.761,130.762 131.761 C 130.848 131.761,130.918 131.576,130.918 131.349 C 130.918 131.123,130.994 130.891,131.087 130.834 C 131.179 130.777,131.255 130.583,131.255 130.403 C 131.255 130.223,131.331 130.076,131.424 130.076 C 131.516 130.076,131.592 129.848,131.592 129.570 C 131.592 129.292,131.668 129.065,131.761 129.065 C 131.853 129.065,131.929 128.913,131.929 128.728 C 131.929 128.543,132.005 128.391,132.098 128.391 C 132.190 128.391,132.266 128.239,132.266 128.054 C 132.266 127.869,132.342 127.717,132.435 127.717 C 132.527 127.717,132.603 127.570,132.603 127.390 C 132.603 127.210,132.679 127.016,132.772 126.959 C 132.864 126.901,132.940 126.707,132.940 126.528 C 132.940 126.348,133.016 126.201,133.109 126.201 C 133.201 126.201,133.277 126.049,133.277 125.864 C 133.277 125.678,133.353 125.527,133.446 125.527 C 133.538 125.527,133.614 125.375,133.614 125.190 C 133.614 125.004,133.681 124.853,133.763 124.853 C 133.845 124.853,133.954 124.720,134.005 124.558 C 134.130 124.164,134.678 123.266,134.836 123.196 C 134.905 123.165,134.962 123.001,134.962 122.831 C 134.962 122.661,135.019 122.496,135.088 122.466 C 135.256 122.391,135.776 121.516,135.998 120.935 C 136.095 120.680,136.243 120.472,136.327 120.472 C 136.410 120.472,136.479 120.375,136.479 120.256 C 136.479 120.138,136.630 119.931,136.816 119.798 C 137.001 119.664,137.152 119.457,137.152 119.338 C 137.152 119.218,137.380 118.883,137.658 118.592 C 137.936 118.301,138.163 117.998,138.163 117.918 C 138.163 117.838,138.391 117.535,138.669 117.244 C 138.947 116.953,139.174 116.644,139.174 116.558 C 139.174 116.472,139.484 116.104,139.862 115.741 C 140.240 115.377,140.511 115.080,140.464 115.080 C 140.209 115.080,145.260 109.946,146.184 109.267 C 146.436 109.082,146.894 108.684,147.202 108.382 C 147.510 108.081,147.846 107.835,147.950 107.835 C 148.053 107.835,148.350 107.607,148.610 107.329 C 148.870 107.051,149.166 106.824,149.269 106.824 C 149.371 106.824,149.693 106.596,149.984 106.318 C 150.275 106.040,150.599 105.813,150.704 105.813 C 150.809 105.813,151.004 105.661,151.137 105.476 C 151.271 105.291,151.483 105.139,151.608 105.139 C 151.733 105.139,151.935 105.044,152.057 104.928 C 152.614 104.400,153.013 104.128,153.233 104.128 C 153.365 104.128,153.572 104.033,153.695 103.917 C 153.817 103.802,154.410 103.451,155.013 103.138 C 155.615 102.825,156.668 102.275,157.353 101.916 C 158.037 101.557,158.701 101.264,158.827 101.264 C 158.953 101.264,159.056 101.188,159.056 101.095 C 159.056 101.003,159.208 100.927,159.393 100.927 C 159.579 100.927,159.730 100.851,159.730 100.758 C 159.730 100.666,159.882 100.590,160.067 100.590 C 160.253 100.590,160.404 100.514,160.404 100.421 C 160.404 100.329,160.632 100.253,160.910 100.253 C 161.188 100.253,161.415 100.177,161.415 100.084 C 161.415 99.992,161.567 99.916,161.752 99.916 C 161.938 99.916,162.089 99.840,162.089 99.747 C 162.089 99.655,162.317 99.579,162.595 99.579 C 162.873 99.579,163.100 99.503,163.100 99.410 C 163.100 99.318,163.290 99.242,163.521 99.242 C 163.753 99.242,163.943 99.166,163.943 99.073 C 163.943 98.981,164.170 98.905,164.448 98.905 C 164.726 98.905,164.954 98.829,164.954 98.736 C 164.954 98.644,165.181 98.568,165.459 98.568 C 165.737 98.568,165.965 98.503,165.965 98.423 C 165.965 98.344,166.423 98.231,166.983 98.172 C 167.544 98.114,168.145 97.989,168.320 97.896 C 168.495 97.802,168.909 97.725,169.239 97.725 C 169.570 97.725,169.840 97.650,169.840 97.557 C 169.840 97.464,170.219 97.388,170.682 97.388 C 171.146 97.388,171.525 97.313,171.525 97.220 C 171.525 97.127,171.937 97.051,172.442 97.051 C 172.946 97.051,173.405 96.976,173.463 96.883 C 173.520 96.790,174.116 96.714,174.787 96.714 C 175.458 96.714,176.079 96.642,176.167 96.554 C 176.485 96.236,186.218 96.229,186.324 96.547 " stroke="none" fill="#54545c" fill-rule="evenodd"></path><path id="path2" d="" stroke="none" fill="#54d058" fill-rule="evenodd"></path><path id="path3" d="" stroke="none" fill="#547458" fill-rule="evenodd"></path><path id="path4" d="" stroke="none" fill="#545460" fill-rule="evenodd"></path></g></svg>